<?xml version="1.0" standalone="no"?><!DOCTYPE svg PUBLIC "-//W3C//DTD SVG 1.1//EN" "http://www.w3.org/Graphics/SVG/1.1/DTD/svg11.dtd"><svg t="1627976581153" class="icon" viewBox="0 0 1024 1024" version="1.1" xmlns="http://www.w3.org/2000/svg" p-id="2210" width="128" height="128" xmlns:xlink="http://www.w3.org/1999/xlink"><defs><style type="text/css"></style></defs><path d="M587.2 305.408a36 36 0 0 0-46.144 21.52l-125.76 345.6a36 36 0 1 0 67.664 24.624l125.76-345.6A36 36 0 0 0 587.2 305.408zM692.208 356.432a36 36 0 0 0-50.912 50.912l104.64 104.656-104.656 104.656a36 36 0 0 0 50.912 50.912l130.112-130.112a36 36 0 0 0 0-50.912zM383.408 356.432a36 36 0 0 0-50.912 0l-130.112 130.112a36 36 0 0 0 0 50.912l130.112 130.112a36 36 0 0 0 50.912-50.912L278.752 512l104.656-104.656a36 36 0 0 0 0-50.912z" p-id="2211"></path><path d="M768 64H256C150.4 64 64 150.4 64 256v512c0 105.6 86.4 192 192 192h512c105.6 0 192-86.4 192-192V256c0-105.6-86.4-192-192-192z m120 704a120.56 120.56 0 0 1-120 120H256a120.56 120.56 0 0 1-120-120V256a120.56 120.56 0 0 1 120-120h512a120.56 120.56 0 0 1 120 120z" p-id="2212"></path></svg>