<?xml version="1.0" standalone="no"?><!DOCTYPE svg PUBLIC "-//W3C//DTD SVG 1.1//EN" "http://www.w3.org/Graphics/SVG/1.1/DTD/svg11.dtd"><svg t="1627977214289" class="icon" viewBox="0 0 1024 1024" version="1.1" xmlns="http://www.w3.org/2000/svg" p-id="4398" width="128" height="128" xmlns:xlink="http://www.w3.org/1999/xlink"><defs><style type="text/css"></style></defs><path d="M750.165573 668.079225c-55.310715 0-100.28866 44.977944-100.28866 100.25667s44.977944 100.28866 100.28866 100.28866c55.278725 0 100.25667-44.945954 100.25667-100.28866s-44.977944-100.25667-100.25667-100.25667z m0 148.881475a48.656795 48.656795 0 1 1 48.624805-48.656795c0 26.807623-21.817182 48.656795-48.624805 48.656795z m265.101156-100.99244c-3.80681-19.865792-16.538832-32.661793-32.853733-32.661793h-2.27129a56.846236 56.846236 0 0 1-56.750266-56.750266c0-8.221431 3.55089-18.266292 4.926461-21.465292 7.741581-17.466542 1.82343-38.867854-15.419182-50.800125l-66.379256-36.756513a42.002874 42.002874 0 0 0-16.698782-3.390941 44.786004 44.786004 0 0 0-31.734083 13.051921c-8.317401 8.509341-30.230553 26.103843-45.361824 26.103843-15.291221 0-37.364324-17.946392-45.681725-26.583693a44.626054 44.626054 0 0 0-48.400875-10.076851l-1.24761 0.511841-67.562886 37.108403-1.599501 1.02368a41.139144 41.139144 0 0 0-14.011621 49.648485c0.54383 1.24761 5.05442 12.220181 5.054421 21.625242 0 31.286223-25.496032 56.750266-56.782256 56.750266h-2.65517c-15.963012 0-28.727023 12.796001-32.469853 32.693783-0.57582 3.10303-5.598251 30.518463-5.598251 52.719525s5.02243 49.648485 5.598251 52.751515c3.77482 19.801812 16.506842 32.661793 32.853733 32.661793h2.2393c31.318213 0 56.750266 25.464042 56.750266 56.718276 0 8.253421-3.55089 18.298282-4.926461 21.497282-7.741581 17.434552-1.82343 38.867854 15.323212 50.800125l65.131646 36.308654a43.762324 43.762324 0 0 0 48.784755-10.300781c8.061481-8.701281 30.838363-27.767323 46.353514-27.767323 15.707092 0 38.228054 19.130022 46.673415 28.375133a44.146204 44.146204 0 0 0 32.341893 13.915651c5.790191 0 11.324461-1.11965 18.042362-4.09472l65.803436-36.404624 1.5995-1.02368a41.171134 41.171134 0 0 0 13.979632-49.648485c-0.51184-1.24761-4.99044-12.188191-4.990441-21.625242 0-31.318213 25.432052-56.750266 56.750266-56.750266h2.62318c15.995002 0 28.759013-12.827991 32.533833-32.661793 0.06398-0.28791 5.630241-29.430803 5.630241-52.751515 0-22.201062-5.02243-49.648485-5.630241-52.719525l0.03199-0.03199z m-49.360575 87.396688a108.350141 108.350141 0 0 0-94.210559 107.454421c0 12.668041 3.07104 24.696282 5.758201 32.821743l-47.473165 26.263793a200.51334 200.51334 0 0 0-19.545892-16.730772c-21.017432-15.547142-41.363074-23.480662-60.493096-23.480662-18.938082 0-39.123774 7.741581-59.981256 23.064792a182.950828 182.950828 0 0 0-19.417932 16.410872l-45.425804-25.400063c2.68716-8.157451 5.758201-20.249672 5.758201-32.917713a108.286161 108.286161 0 0 0-94.21056-107.454421 251.569385 251.569385 0 0 1-3.29497-34.677163c0-11.452421 1.9194-25.879913 3.29497-34.677163a108.350141 108.350141 0 0 0 94.21056-107.486411c0-12.668041-3.07104-24.664292-5.726211-32.757763l49.008685-26.935583c4.28666 3.99875 11.100531 10.044861 19.481912 15.995002 20.633552 14.683411 40.435364 22.137082 58.989565 22.137082 18.362262 0 38.036114-7.293721 58.541706-21.721212 8.317401-5.886161 15.067291-11.676351 19.321962-15.675102l46.961325 26.103843a107.806311 107.806311 0 0 0-5.758201 32.821743 108.350141 108.350141 0 0 0 94.146579 107.486411c1.43955 8.989191 3.32696 23.320712 3.326961 34.677163s-1.88741 25.687973-3.326961 34.677163h0.06398z m-895.720087 146.834115v-56.782256c0-193.059669 148.881475-352.177944 338.582193-370.092346l-0.09597-0.03199h0.47985c11.644361-1.08766 23.384692-1.69547 35.316963-1.69547 1.79144 0 3.55089 0.09597 5.342331 0.12796 41.938894-3.26298 105.40706-13.115901 138.612683-42.706654l16.250922-12.668041c63.436176-49.520525 99.8408-123.513402 99.8408-202.97657 0-142.419494-116.635551-258.255295-260.046736-258.255296S184.422368 120.954202 184.422368 263.373696c0 79.463168 36.372634 153.456045 99.80881 202.97657l16.218931 12.668041-19.130022 7.581631C112.316901 553.714964 3.16701 713.37707 3.16701 893.480787v89.987879c0 18.298282 15.035301 33.237613 33.493534 33.237613h489.606997a339.445923 339.445923 0 0 1-40.499344-66.443236l-415.58213-0.06398zM252.497095 263.309716c0-105.82293 86.085098-191.940019 191.940018-191.940019 105.82293 0 191.940019 86.117088 191.940019 191.940019s-86.117088 191.940019-191.940019 191.940018c-105.85492 0-191.940019-86.117088-191.940018-191.940018z" p-id="4399"></path></svg>